<svg xmlns="http://www.w3.org/2000/svg" viewBox="0 0 50 40" width="50" height="40" fill="none">
  <g fill="#0070D1">
    <path d="M16.47 7.02c0-2.02 1.47-3.64 4.07-3.64 2.01 0 3.56.74 4.67 1.58l2.25-2.82C25.79.67 23.08-.1 20.04-.1c-5.28 0-8.67 3.12-8.67 7.67 0 4.1 2.87 6.54 7.55 7.42l2.26.43c2.09.39 3.14 1.23 3.14 2.37 0 1.37-1.31 2.27-3.38 2.27-2.35 0-4.45-.96-5.93-2.11l-2.28 2.97c2.18 1.66 5.07 2.7 8.37 2.7 5.68 0 9-3.15 9-7.79 0-4.28-2.97-6.47-7.68-7.34l-2.35-.44c-2.01-.38-2.98-1.12-2.98-2.18z"/>
    <path opacity="0.8" d="M25.75 22.44c-1.84-1.23-3.95-1.84-6.23-1.84-4.21 0-7.72 2.19-9.47 5.69l2.8 1.57c1.23-2.45 3.68-3.94 6.66-3.94 1.58 0 2.97.44 4.2 1.23l2.04-2.71z"/>
    <path opacity="0.6" d="M11.23 27.87c2.02.96 4.39 1.44 6.94 1.44 4.91 0 9.03-2.45 11.05-6.39l-2.8-1.57c-1.4 2.89-4.29 4.64-7.76 4.64-1.75 0-3.32-.44-4.64-1.23l-2.79 3.11z"/>
  </g>
</svg>
