<svg xmlns="http://www.w3.org/2000/svg" viewBox="0 0 24 24" width="24" height="24" fill="none">
  <path fill="#ffffff" fill-rule="evenodd" clip-rule="evenodd" d="M11.979 2C6.478 2 2.016 6.447 2 11.944l5.522 2.28c.613-.67 1.488-1.094 2.464-1.094.264 0 .521.03.767.086l3.05-4.423V8.71a3.766 3.766 0 1 1 3.765 3.766h-.082l-4.382 3.08a3.754 3.754 0 0 1-3.518 2.43 3.766 3.766 0 0 1-3.765-3.766c0-.05.006-.1.01-.15L2.8 12.82C3.99 18.062 8.544 22 11.979 22c5.523 0 10-4.477 10-10s-4.477-10-10-10zm5.765 8.71a1.983 1.983 0 1 0 0-3.966 1.983 1.983 0 0 0 0 3.966zm-7.75 3.324a2.235 2.235 0 0 0-2.233 2.234c0 1.232.999 2.232 2.233 2.232 1.234 0 2.233-1 2.233-2.232 0-1.233-.999-2.234-2.233-2.234z"/>
</svg>